<svg width="80" height="80" viewBox="0 0 80 80" fill="none" xmlns="http://www.w3.org/2000/svg">
<path d="M38.2934 72.5133C39.2734 73.0367 40.5034 73.0333 41.4834 72.51C68.1901 58.1633 70.0868 30.1333 70.0634 22.1633C70.0609 21.5228 69.8716 20.8968 69.5187 20.3622C69.1659 19.8276 68.6648 19.4075 68.0768 19.1533L41.2434 7.26666C40.8164 7.07842 40.3548 6.98148 39.8881 6.98206C39.4214 6.98263 38.96 7.08071 38.5334 7.26999L11.8868 19.1567C11.3074 19.4109 10.8134 19.8264 10.4635 20.3536C10.1137 20.8807 9.92271 21.4974 9.91343 22.13C9.80009 30.06 11.3968 58.15 38.2934 72.5133ZM28.9134 34.31L36.5568 41.9533L50.8668 27.6433L55.5801 32.3567L36.5568 51.38L24.2001 39.0233L28.9134 34.31Z" fill="#25E45F"/>
</svg>
