<svg width="80" height="81" viewBox="0 0 80 81" fill="none" xmlns="http://www.w3.org/2000/svg">
<path d="M42.9467 8.93999C41.7934 6.75999 38.2067 6.75999 37.0534 8.93999L7.05336 65.6067C6.7833 66.1146 6.64942 66.6837 6.66476 67.2588C6.68009 67.8338 6.84413 68.3951 7.14087 68.8878C7.43761 69.3806 7.85695 69.7881 8.35802 70.0707C8.85908 70.3532 9.42479 70.5011 10 70.5H70C70.5749 70.5012 71.1402 70.3534 71.6409 70.071C72.1416 69.7887 72.5607 69.3814 72.8571 68.8889C73.1535 68.3964 73.3173 67.8354 73.3324 67.2608C73.3475 66.6862 73.2135 66.1174 72.9434 65.61L42.9467 8.93999ZM43.3334 60.5H36.6667V53.8333H43.3334V60.5ZM36.6667 47.1667V30.5H43.3334L43.3367 47.1667H36.6667Z" fill="#FFBD30"/>
</svg>
