<svg width="80" height="80" viewBox="0 0 80 80" fill="none" xmlns="http://www.w3.org/2000/svg">
<path fill-rule="evenodd" clip-rule="evenodd" d="M40 7C41.6569 7 43 8.34315 43 10V20C43 21.6569 41.6569 23 40 23C38.3431 23 37 21.6569 37 20V10C37 8.34315 38.3431 7 40 7ZM63.3387 16.6613C64.5102 17.8328 64.5102 19.7323 63.3386 20.9039L56.2683 27.9742C55.0967 29.1458 53.1972 29.1458 52.0257 27.9742C50.8541 26.8026 50.8541 24.9031 52.0257 23.7315L59.096 16.6612C60.2676 15.4897 62.1671 15.4897 63.3387 16.6613ZM16.6677 16.6677C17.8393 15.4962 19.7388 15.4962 20.9104 16.6677L27.9872 23.7446C29.1588 24.9162 29.1588 26.8156 27.9872 27.9872C26.8156 29.1588 24.9162 29.1588 23.7446 27.9872L16.6677 20.9104C15.4962 19.7388 15.4962 17.8393 16.6677 16.6677ZM7 40C7 38.3431 8.34315 37 10 37H20C21.6569 37 23 38.3431 23 40C23 41.6569 21.6569 43 20 43H10C8.34315 43 7 41.6569 7 40ZM57 40C57 38.3431 58.3431 37 60 37H70C71.6569 37 73 38.3431 73 40C73 41.6569 71.6569 43 70 43H60C58.3431 43 57 41.6569 57 40ZM52.0193 52.0193C53.1909 50.8478 55.0904 50.8478 56.262 52.0193L63.3323 59.0897C64.5039 60.2613 64.5039 62.1607 63.3323 63.3323C62.1607 64.5039 60.2613 64.5039 59.0897 63.3323L52.0193 56.262C50.8478 55.0904 50.8478 53.1909 52.0193 52.0193ZM27.9807 52.0194C29.1523 53.191 29.1523 55.0904 27.9807 56.262L20.9039 63.3387C19.7323 64.5102 17.8328 64.5102 16.6612 63.3386C15.4897 62.167 15.4897 60.2676 16.6613 59.096L23.7381 52.0193C24.9097 50.8478 26.8091 50.8478 27.9807 52.0194ZM40 57C41.6569 57 43 58.3431 43 60V70C43 71.6569 41.6569 73 40 73C38.3431 73 37 71.6569 37 70V60C37 58.3431 38.3431 57 40 57Z" fill="#1D86FB"/>
</svg>
