<svg width="80" height="81" viewBox="0 0 80 81" fill="none" xmlns="http://www.w3.org/2000/svg">
<path d="M68.32 20.8533L41.7434 7.52C41.281 7.28647 40.7705 7.16425 40.2525 7.16309C39.7345 7.16194 39.2234 7.28187 38.76 7.51334L12.0034 20.8467C11.0134 21.3467 10.33 22.3033 10.19 23.4033C10.1467 23.7267 6.37337 55.8733 38.66 73.43C39.1563 73.7007 39.7136 73.84 40.2789 73.8348C40.8442 73.8295 41.3988 73.6799 41.89 73.4C72.9134 55.87 70.27 24.8233 70.1434 23.51C70.0888 22.9492 69.8929 22.4113 69.574 21.9467C69.2552 21.4821 68.8237 21.1059 68.32 20.8533Z" fill="#1D86FB"/>
</svg>
